<svg width="140" height="40" viewBox="0 0 140 40" fill="none" xmlns="http://www.w3.org/2000/svg">
<rect width="45.3237" height="40" fill="white"/>
<rect x="7.37863" y="16.3636" width="0.758092" height="1.81818" fill="black"/>
<rect x="8.13669" y="16.3636" width="0.758092" height="0.909091" fill="black"/>
<path d="M7.37863 16.3635C7.37863 14.3552 9.00669 12.7272 11.015 12.7272H37.7023V16.3635H7.37863V16.3635Z" fill="black"/>
<path d="M7.65632 16.6943L8.89736 17.2751L8.14068 18.1825L7.65632 16.6943Z" fill="black"/>
<path d="M8.57355 15.9784L9.65368 16.3663L8.89701 17.2737L8.57355 15.9784Z" fill="black"/>
<path d="M7.37861 18.182L8.13671 18.182L7.37862 19.091L7.37861 18.182Z" fill="black"/>
<path d="M8.81876 17.0179C8.89772 16.9412 8.98293 16.8724 9.06418 16.7991C9.15458 16.7176 9.25622 16.6683 9.35498 16.6046C9.46171 16.5358 9.55952 16.446 9.67185 16.3899C9.80769 16.3222 9.95145 16.2553 10.0955 16.2171C10.2059 16.1878 10.3232 16.205 10.4325 16.1702C10.4846 16.1536 10.6449 16.1259 10.5922 16.1395C10.5571 16.1485 10.5239 16.1658 10.4896 16.1783C10.4343 16.1985 10.3771 16.2056 10.3215 16.2236C10.2681 16.241 10.2226 16.2818 10.1698 16.3012C10.0473 16.3464 9.91546 16.3534 9.79456 16.4101C9.69629 16.4562 9.59881 16.5057 9.50543 16.5643C9.4149 16.6211 9.32655 16.6376 9.25161 16.7256C9.18536 16.8033 9.0857 16.8449 9.03812 16.9463C9.02154 16.9817 8.98517 17.0501 8.98517 17.0501C8.98517 17.0501 9.00456 17.0155 9.01585 16.9997C9.07201 16.9212 9.15834 16.8732 9.22387 16.8042C9.31675 16.7063 9.4205 16.6545 9.52728 16.586C9.78618 16.4199 10.0961 16.3074 10.3913 16.3012C10.4589 16.2998 10.5266 16.29 10.5934 16.2786C10.6833 16.2632 10.7725 16.2686 10.8628 16.2629C11.0428 16.2517 11.2257 16.2468 11.4058 16.2468" stroke="black" stroke-width="0.2" stroke-linecap="round"/>
<rect x="7.37933" y="24.5454" width="0.759761" height="1.81818" fill="black"/>
<rect x="8.13907" y="24.5454" width="0.759761" height="0.909091" fill="black"/>
<path d="M7.37933 24.5455C7.37933 22.5372 9.00739 20.9092 11.0157 20.9092H37.7698V24.5455H7.37933V24.5455Z" fill="black"/>
<path d="M7.65764 24.876L8.90141 25.4569L8.14308 26.3643L7.65764 24.876Z" fill="black"/>
<path d="M8.57689 24.1602L9.6594 24.5481L8.90106 25.4555L8.57689 24.1602Z" fill="black"/>
<path d="M7.37934 26.3638L8.1391 26.3638L7.37934 27.2729L7.37934 26.3638Z" fill="black"/>
<path d="M8.82263 25.1996C8.90177 25.123 8.98716 25.0542 9.06859 24.9809C9.1592 24.8994 9.26106 24.85 9.36004 24.7864C9.467 24.7176 9.56503 24.6277 9.6776 24.5717C9.81374 24.504 9.95782 24.437 10.1021 24.3989C10.2128 24.3696 10.3304 24.3868 10.4399 24.352C10.4921 24.3354 10.6528 24.3077 10.6 24.3212C10.5648 24.3303 10.5315 24.3475 10.4972 24.36C10.4417 24.3803 10.3844 24.3874 10.3287 24.4054C10.2751 24.4228 10.2296 24.4635 10.1767 24.483C10.0539 24.5282 9.92175 24.5352 9.80058 24.5919C9.7021 24.6379 9.60441 24.6875 9.51082 24.7461C9.42009 24.8029 9.33154 24.8194 9.25643 24.9073C9.19005 24.9851 9.09016 25.0266 9.04248 25.1281C9.02586 25.1634 8.98941 25.2319 8.98941 25.2319C8.98941 25.2319 9.00885 25.1973 9.02016 25.1815C9.07644 25.1029 9.16296 25.055 9.22864 24.9859C9.32172 24.8881 9.4257 24.8362 9.53272 24.7677C9.79219 24.6017 10.1028 24.4892 10.3986 24.483C10.4664 24.4816 10.5342 24.4718 10.6012 24.4603C10.6913 24.4449 10.7807 24.4503 10.8712 24.4447C11.0515 24.4335 11.2348 24.4286 11.4153 24.4286" stroke="black" stroke-width="0.2" stroke-linecap="round"/>
<rect x="23.1655" y="20" width="15.1079" height="5.45455" fill="white"/>
<rect x="7.37933" y="32.7273" width="0.759761" height="1.81818" fill="black"/>
<rect x="8.13907" y="32.7273" width="0.759761" height="0.909091" fill="black"/>
<path d="M7.37933 32.7274C7.37933 30.7191 9.00739 29.0911 11.0157 29.0911H37.7698V32.7274H7.37933V32.7274Z" fill="black"/>
<path d="M7.65764 33.0579L8.90141 33.6388L8.14308 34.5461L7.65764 33.0579Z" fill="black"/>
<path d="M8.57689 32.3421L9.6594 32.73L8.90106 33.6374L8.57689 32.3421Z" fill="black"/>
<path d="M7.37934 34.5455L8.1391 34.5455L7.37934 35.4546L7.37934 34.5455Z" fill="black"/>
<path d="M8.82263 33.3813C8.90177 33.3046 8.98716 33.2358 9.06859 33.1625C9.1592 33.081 9.26106 33.0317 9.36004 32.968C9.467 32.8992 9.56503 32.8094 9.6776 32.7533C9.81374 32.6856 9.95782 32.6187 10.1021 32.5805C10.2128 32.5512 10.3304 32.5684 10.4399 32.5336C10.4921 32.517 10.6528 32.4893 10.6 32.5029C10.5648 32.5119 10.5315 32.5292 10.4972 32.5417C10.4417 32.5619 10.3844 32.569 10.3287 32.587C10.2751 32.6044 10.2296 32.6452 10.1767 32.6647C10.0539 32.7098 9.92175 32.7168 9.80058 32.7735C9.7021 32.8196 9.60441 32.8691 9.51082 32.9277C9.42009 32.9845 9.33154 33.001 9.25643 33.089C9.19005 33.1667 9.09016 33.2083 9.04248 33.3097C9.02586 33.3451 8.98941 33.4135 8.98941 33.4135C8.98941 33.4135 9.00885 33.3789 9.02016 33.3631C9.07644 33.2846 9.16296 33.2366 9.22864 33.1676C9.32172 33.0697 9.4257 33.0179 9.53272 32.9494C9.79219 32.7833 10.1028 32.6708 10.3986 32.6647C10.4664 32.6632 10.5342 32.6534 10.6012 32.642C10.6913 32.6266 10.7807 32.632 10.8712 32.6264C11.0515 32.6151 11.2348 32.6102 11.4153 32.6102" stroke="black" stroke-width="0.2" stroke-linecap="round"/>
<rect x="23.1655" y="28.1819" width="16.1151" height="5.45455" fill="white"/>
<rect x="7.37933" y="8.18176" width="0.759761" height="1.81818" fill="#0066CC"/>
<rect x="8.13907" y="8.18176" width="0.759761" height="0.909091" fill="#0066CC"/>
<path d="M7.37933 8.18177C7.37933 6.17347 9.00739 4.54541 11.0157 4.54541H37.7698V8.18177H7.37933V8.18177Z" fill="#0066CC"/>
<path d="M7.65764 8.51237L8.90141 9.09322L8.14308 10.0006L7.65764 8.51237Z" fill="#0066CC"/>
<path d="M8.5769 7.79655L9.6594 8.18444L8.90106 9.09182L8.5769 7.79655Z" fill="#0066CC"/>
<path d="M7.37934 9.99996L8.1391 9.99996L7.37934 10.909L7.37934 9.99996Z" fill="#0066CC"/>
<path d="M8.82263 8.8361C8.90177 8.75944 8.98716 8.69065 9.06859 8.61738C9.1592 8.53586 9.26106 8.48652 9.36004 8.42286C9.467 8.35407 9.56503 8.26419 9.6776 8.20818C9.81374 8.14044 9.95782 8.07351 10.1021 8.03533C10.2128 8.00605 10.3304 8.02328 10.4399 7.98846C10.4921 7.97186 10.6528 7.94417 10.6 7.95772C10.5648 7.96673 10.5315 7.98401 10.4972 7.99652C10.4417 8.01675 10.3844 8.02384 10.3287 8.04188C10.2751 8.05923 10.2296 8.1 10.1767 8.11948C10.0539 8.16468 9.92175 8.17168 9.80058 8.22834C9.7021 8.27439 9.60441 8.32397 9.51082 8.38254C9.42009 8.43933 9.33154 8.45585 9.25643 8.54381C9.19005 8.62155 9.09016 8.6631 9.04248 8.76454C9.02586 8.79989 8.98941 8.86835 8.98941 8.86835C8.98941 8.86835 9.00885 8.83375 9.02016 8.81795C9.07644 8.73939 9.16296 8.69148 9.22864 8.62242C9.32172 8.52454 9.4257 8.47271 9.53272 8.40421C9.79219 8.23815 10.1028 8.12564 10.3986 8.11948C10.4664 8.11807 10.5342 8.10826 10.6012 8.09681C10.6913 8.08141 10.7807 8.08681 10.8712 8.08118C11.0515 8.06997 11.2348 8.06506 11.4153 8.06506" stroke="#0066CC" stroke-width="0.2" stroke-linecap="round"/>
<path d="M49.1591 15.4432V26.8182H47.6512V15.4432H49.1591ZM53.9247 20.5604V21.7948H48.8309V20.5604H53.9247ZM54.6981 15.4432V16.6776H48.8309V15.4432H54.6981ZM65.2528 20.7714V21.4901C65.2528 22.3443 65.146 23.1099 64.9325 23.787C64.719 24.4641 64.4117 25.0396 64.0106 25.5135C63.6096 25.9875 63.1278 26.3495 62.5653 26.5995C62.008 26.8495 61.383 26.9745 60.6903 26.9745C60.0184 26.9745 59.4012 26.8495 58.8387 26.5995C58.2815 26.3495 57.7971 25.9875 57.3856 25.5135C56.9794 25.0396 56.6643 24.4641 56.4403 23.787C56.2163 23.1099 56.1044 22.3443 56.1044 21.4901V20.7714C56.1044 19.9172 56.2137 19.1542 56.4325 18.4823C56.6565 17.8052 56.9716 17.2297 57.3778 16.7557C57.7841 16.2766 58.2658 15.912 58.8231 15.662C59.3856 15.412 60.0028 15.287 60.6747 15.287C61.3674 15.287 61.9924 15.412 62.5497 15.662C63.1122 15.912 63.594 16.2766 63.995 16.7557C64.4012 17.2297 64.7111 17.8052 64.9247 18.4823C65.1434 19.1542 65.2528 19.9172 65.2528 20.7714ZM63.7606 21.4901V20.7557C63.7606 20.0787 63.6903 19.4797 63.5497 18.9589C63.4143 18.438 63.2137 18.0005 62.9481 17.6464C62.6825 17.2922 62.357 17.024 61.9716 16.8417C61.5913 16.6594 61.1591 16.5682 60.6747 16.5682C60.2059 16.5682 59.7815 16.6594 59.4012 16.8417C59.0262 17.024 58.7033 17.2922 58.4325 17.6464C58.1669 18.0005 57.9611 18.438 57.8153 18.9589C57.6695 19.4797 57.5966 20.0787 57.5966 20.7557V21.4901C57.5966 22.1724 57.6695 22.7766 57.8153 23.3026C57.9611 23.8234 58.1695 24.2635 58.4403 24.6229C58.7163 24.9771 59.0419 25.2453 59.4169 25.4276C59.7971 25.6099 60.2216 25.701 60.6903 25.701C61.1799 25.701 61.6148 25.6099 61.995 25.4276C62.3752 25.2453 62.6955 24.9771 62.9559 24.6229C63.2216 24.2635 63.4221 23.8234 63.5575 23.3026C63.6929 22.7766 63.7606 22.1724 63.7606 21.4901ZM74.0184 15.4432H75.5184V23.1385C75.5184 23.9927 75.3283 24.7037 74.9481 25.2714C74.5679 25.8391 74.0627 26.2662 73.4325 26.5526C72.8075 26.8339 72.1278 26.9745 71.3934 26.9745C70.6226 26.9745 69.9247 26.8339 69.2997 26.5526C68.6799 26.2662 68.1877 25.8391 67.8231 25.2714C67.4637 24.7037 67.2841 23.9927 67.2841 23.1385V15.4432H68.7762V23.1385C68.7762 23.7323 68.8856 24.2219 69.1044 24.6073C69.3231 24.9927 69.6278 25.2792 70.0184 25.4667C70.4143 25.6542 70.8726 25.7479 71.3934 25.7479C71.9195 25.7479 72.3778 25.6542 72.7684 25.4667C73.1643 25.2792 73.4716 24.9927 73.6903 24.6073C73.9091 24.2219 74.0184 23.7323 74.0184 23.1385V15.4432ZM77.8856 15.4432H81.6512C82.5054 15.4432 83.2268 15.5734 83.8153 15.8339C84.4091 16.0943 84.8596 16.4797 85.1669 16.9901C85.4794 17.4953 85.6356 18.1177 85.6356 18.8573C85.6356 19.3781 85.5288 19.8547 85.3153 20.287C85.107 20.7141 84.8049 21.0787 84.4091 21.3807C84.0184 21.6776 83.5497 21.899 83.0028 22.0448L82.5809 22.2089H79.0419L79.0262 20.9823H81.6981C82.2398 20.9823 82.6903 20.8885 83.0497 20.701C83.4091 20.5083 83.6799 20.2505 83.8622 19.9276C84.0445 19.6047 84.1356 19.2479 84.1356 18.8573C84.1356 18.4198 84.0497 18.037 83.8778 17.7089C83.7059 17.3807 83.4351 17.1281 83.0653 16.951C82.7007 16.7688 82.2294 16.6776 81.6512 16.6776H79.3934V26.8182H77.8856V15.4432ZM84.5341 26.8182L81.7684 21.662L83.3387 21.6542L86.1434 26.7245V26.8182H84.5341Z" fill="black"/>
<path d="M98.8662 25.5917V26.8182H93.1787V25.5917H98.8662ZM93.4756 15.4432V26.8182H91.9678V15.4432H93.4756ZM102.21 15.4432V26.8182H100.702V15.4432H102.21ZM113.702 15.4432V26.8182H112.187L106.46 18.0448V26.8182H104.952V15.4432H106.46L112.21 24.2401V15.4432H113.702ZM123.601 25.5917V26.8182H117.577V25.5917H123.601ZM117.882 15.4432V26.8182H116.374V15.4432H117.882ZM122.804 20.3339V21.5604H117.577V20.3339H122.804ZM123.522 15.4432V16.6776H117.577V15.4432H123.522Z" fill="#0066CC"/>
</svg>
