<?xml version="1.0" standalone="no"?>
<!DOCTYPE svg PUBLIC "-//W3C//DTD SVG 20010904//EN"
 "http://www.w3.org/TR/2001/REC-SVG-20010904/DTD/svg10.dtd">
<svg version="1.0" xmlns="http://www.w3.org/2000/svg"
 width="512.000000pt" height="512.000000pt" viewBox="0 0 512.000000 512.000000"
 preserveAspectRatio="xMidYMid meet">

<g transform="translate(0.000000,512.000000) scale(0.100000,-0.100000)"
fill="#000000" stroke="none">
<path d="M2330 5110 c-494 -48 -950 -230 -1350 -538 -195 -150 -448 -432 -594
-662 -63 -99 -186 -351 -230 -471 -49 -134 -102 -340 -128 -499 -31 -195 -31
-565 0 -760 45 -276 116 -498 237 -745 132 -269 269 -460 489 -681 221 -220
412 -357 681 -489 247 -121 469 -192 745 -237 195 -31 565 -31 760 0 276 45
498 116 745 237 269 132 460 269 681 489 220 221 357 412 489 681 123 250 194
477 237 750 31 200 31 550 0 750 -43 273 -114 500 -237 750 -132 269 -269 460
-489 681 -221 220 -412 357 -681 489 -246 121 -474 193 -740 235 -147 23 -475
34 -615 20z m550 -355 c375 -57 713 -199 1020 -428 122 -92 336 -305 426 -427
236 -319 371 -642 431 -1030 24 -157 24 -463 0 -620 -59 -386 -199 -720 -430
-1029 -92 -124 -305 -337 -427 -428 -402 -300 -843 -447 -1340 -447 -497 0
-938 147 -1340 447 -122 91 -336 305 -427 427 -300 402 -447 843 -447 1340 0
497 147 938 447 1339 92 124 305 337 427 428 317 237 684 386 1060 432 47 6
101 13 120 15 71 9 378 -4 480 -19z"/>
<path d="M2507 4355 c-47 -16 -81 -46 -101 -90 -14 -29 -16 -141 -16 -949 l0
-916 718 0 c394 0 735 5 756 10 54 12 87 38 114 91 42 80 8 184 -75 225 -36
18 -71 19 -605 22 l-568 3 0 740 c0 602 -3 746 -14 772 -17 42 -66 83 -114 97
-46 12 -48 12 -95 -5z"/>
</g>
</svg>
