<svg version="1.0" xmlns="http://www.w3.org/2000/svg"
 width="256.000000pt" height="256.000000pt" viewBox="0 0 256.000000 256.000000"
 preserveAspectRatio="xMidYMid meet">

<g transform="translate(0.000000,256.000000) scale(0.100000,-0.100000)"
fill="#000000" stroke="none">
<path d="M340 2114 c-46 -20 -77 -50 -103 -99 -22 -40 -22 -43 -22 -735 l0
-695 25 -45 c14 -24 45 -58 68 -75 l44 -30 928 0 928 0 44 30 c23 17 54 51 68
75 l25 45 0 695 0 695 -25 45 c-14 24 -45 58 -68 75 l-44 30 -916 2 c-803 2
-921 0 -952 -13z m1370 -459 c-234 -146 -430 -263 -435 -261 -6 2 -199 121
-430 265 l-418 261 853 0 854 0 -424 -265z m-838 -226 c219 -137 403 -249 409
-249 6 0 194 114 418 253 223 140 412 257 419 261 9 6 12 -102 12 -523 l0
-531 -850 0 -850 0 0 530 0 531 22 -12 c12 -6 201 -123 420 -260z"/>
</g>
</svg>
