<svg width="24" height="24" viewBox="0 0 24 24" fill="none" xmlns="http://www.w3.org/2000/svg">
<path d="M18.719 14.053C18.3038 13.7187 17.7927 13.5259 17.2602 13.5027C16.7277 13.4795 16.2017 13.6271 15.759 13.924L14.25 14.93C12.9868 14.641 11.8308 14.0017 10.9145 13.0854C9.99827 12.1692 9.35896 11.0131 9.07 9.74995L10.076 8.24095C10.3728 7.79826 10.5204 7.27228 10.4972 6.73979C10.474 6.20729 10.2812 5.69614 9.947 5.28095L8.718 3.74395C8.47004 3.43391 8.15243 3.18673 7.79099 3.02249C7.42955 2.85825 7.03446 2.78159 6.63783 2.79874C6.24119 2.81589 5.8542 2.92636 5.50828 3.12118C5.16236 3.31599 4.86727 3.58966 4.647 3.91995L3.661 5.39995C3.19747 6.09391 2.90973 6.89023 2.82263 7.7202C2.73552 8.55017 2.85165 9.38888 3.161 10.164C4.12895 12.5705 5.57362 14.7564 7.40813 16.5902C9.24265 18.4241 11.4291 19.8679 13.836 20.835C14.6111 21.1443 15.4498 21.2604 16.2797 21.1733C17.1097 21.0862 17.906 20.7985 18.6 20.335L20.08 19.349C20.4103 19.1287 20.684 18.8336 20.8788 18.4877C21.0736 18.1418 21.1841 17.7548 21.2012 17.3581C21.2184 16.9615 21.1417 16.5664 20.9775 16.205C20.8132 15.8435 20.566 15.5259 20.256 15.278L18.719 14.053ZM19.525 18.521L18.045 19.507C17.4859 19.88 16.8444 20.1114 16.1759 20.1811C15.5074 20.2508 14.832 20.1567 14.208 19.907C11.9273 18.9897 9.85559 17.6208 8.11736 15.8826C6.37913 14.1444 5.01025 12.0726 4.093 9.79195C3.84336 9.16793 3.74933 8.49253 3.81902 7.82404C3.8887 7.15556 4.12002 6.51407 4.493 5.95495L5.479 4.47495C5.61073 4.27478 5.78833 4.10893 5.99704 3.99118C6.20575 3.87343 6.43954 3.80719 6.679 3.79795H6.748C6.97635 3.79722 7.20187 3.84843 7.40751 3.9477C7.61315 4.04697 7.79353 4.1917 7.935 4.37095L9.166 5.90595C9.36778 6.15544 9.48424 6.46305 9.49828 6.78361C9.51232 7.10417 9.42319 7.42079 9.244 7.68695L8.121 9.37095C8.08437 9.42561 8.0589 9.48696 8.04603 9.55148C8.03315 9.616 8.03314 9.68243 8.046 9.74695C8.34995 11.2798 9.10207 12.6879 10.2071 13.7929C11.312 14.8979 12.7202 15.65 14.253 15.954C14.3175 15.9668 14.384 15.9668 14.4485 15.9539C14.513 15.9411 14.5743 15.9156 14.629 15.879L16.313 14.756C16.5792 14.5768 16.8958 14.4876 17.2163 14.5017C17.5369 14.5157 17.8445 14.6322 18.094 14.834L19.631 16.063C19.8182 16.2127 19.9675 16.4044 20.0666 16.6226C20.1658 16.8408 20.2121 17.0794 20.2018 17.3189C20.1915 17.5583 20.1248 17.792 20.0072 18.0009C19.8896 18.2097 19.7244 18.3879 19.525 18.521Z" fill="#ED145B"/>
<path d="M12.7 7.2251C13.7806 7.22563 14.8168 7.65513 15.5809 8.41922C16.345 9.18332 16.7745 10.2195 16.775 11.3001C16.775 11.4327 16.8277 11.5599 16.9214 11.6537C17.0152 11.7474 17.1424 11.8001 17.275 11.8001C17.4076 11.8001 17.5348 11.7474 17.6286 11.6537C17.7223 11.5599 17.775 11.4327 17.775 11.3001C17.7745 9.95429 17.2396 8.66375 16.288 7.71212C15.3364 6.76048 14.0458 6.22563 12.7 6.2251C12.5674 6.2251 12.4402 6.27778 12.3464 6.37154C12.2527 6.46531 12.2 6.59249 12.2 6.7251C12.2 6.85771 12.2527 6.98488 12.3464 7.07865C12.4402 7.17242 12.5674 7.2251 12.7 7.2251Z" fill="#ED145B"/>
<path d="M12.7 3.80005C14.6885 3.80217 16.5949 4.59302 18.001 5.99909C19.407 7.40515 20.1979 9.31157 20.2 11.3C20.2 11.4327 20.2527 11.5598 20.3464 11.6536C20.4402 11.7474 20.5674 11.8 20.7 11.8C20.8326 11.8 20.9598 11.7474 21.0536 11.6536C21.1473 11.5598 21.2 11.4327 21.2 11.3C21.1974 9.04652 20.301 6.88605 18.7075 5.29256C17.114 3.69908 14.9535 2.8027 12.7 2.80005C12.5674 2.80005 12.4402 2.85273 12.3464 2.9465C12.2527 3.04026 12.2 3.16744 12.2 3.30005C12.2 3.43266 12.2527 3.55983 12.3464 3.6536C12.4402 3.74737 12.5674 3.80005 12.7 3.80005Z" fill="#ED145B"/>
</svg>
